<svg width="1123" height="204" viewBox="0 0 1123 204" fill="none" xmlns="http://www.w3.org/2000/svg">
<mask id="path-1-outside-1_135_8" maskUnits="userSpaceOnUse" x="402" y="47" width="717" height="115" fill="black">
<rect fill="white" x="402" y="47" width="717" height="115"/>
<path d="M403.9 50.75H422.8L450.1 138.5H450.25L477.55 50.75H496.45L459.85 158H440.5L403.9 50.75ZM552.813 160.25C520.413 160.25 500.163 136.55 500.163 104.3C500.163 72.05 520.413 48.5 552.813 48.5C585.063 48.5 605.463 72.05 605.463 104.3C605.463 136.55 585.063 160.25 552.813 160.25ZM552.813 144.95C577.413 144.95 587.613 126.05 587.613 104.3C587.613 82.7 577.413 63.8 552.813 63.8C528.213 63.8 517.863 82.7 517.863 104.3C517.863 126.05 528.213 144.95 552.813 144.95ZM605.314 50.75H624.364L652.114 100.55H652.414L680.314 50.75H699.364L661.264 115.4V158H643.414V115.4L605.314 50.75ZM742.465 158V65.9H708.115V50.75H794.515V65.9H760.315V158H742.465ZM809.697 50.75H827.547V95.15H878.247V50.75H896.097V158H878.247V110.45H827.547V158H809.697V50.75ZM966.766 160.25C934.366 160.25 914.116 136.55 914.116 104.3C914.116 72.05 934.366 48.5 966.766 48.5C999.016 48.5 1019.42 72.05 1019.42 104.3C1019.42 136.55 999.016 160.25 966.766 160.25ZM966.766 144.95C991.366 144.95 1001.57 126.05 1001.57 104.3C1001.57 82.7 991.366 63.8 966.766 63.8C942.166 63.8 931.816 82.7 931.816 104.3C931.816 126.05 942.166 144.95 966.766 144.95ZM1077.25 94.1C1100.2 99.95 1117.6 104.9 1117.6 128.9C1117.6 146 1104.7 160.25 1077.7 160.25C1051.45 160.25 1031.5 146.6 1030.45 122.3H1048.3C1049.2 135.95 1058.5 144.95 1077.7 144.95C1093.6 144.95 1099.75 137.9 1099.75 129.65C1099.75 116.9 1090.6 114.5 1069.45 109.25C1052.65 105.05 1034.5 98.6 1034.5 78.2C1034.5 59.15 1049.2 48.5 1072.6 48.5C1096.15 48.5 1113.25 60.8 1114.75 82.85H1096.9C1095.25 70.4 1087.45 63.8 1072.6 63.8C1059.85 63.8 1052.2 68.6 1052.2 76.55C1052.2 88.25 1062.25 90.35 1077.25 94.1Z"/>
</mask>
<path d="M403.9 50.75H422.8L450.1 138.5H450.25L477.55 50.75H496.45L459.85 158H440.5L403.9 50.75ZM552.813 160.25C520.413 160.25 500.163 136.55 500.163 104.3C500.163 72.05 520.413 48.5 552.813 48.5C585.063 48.5 605.463 72.05 605.463 104.3C605.463 136.55 585.063 160.25 552.813 160.25ZM552.813 144.95C577.413 144.95 587.613 126.05 587.613 104.3C587.613 82.7 577.413 63.8 552.813 63.8C528.213 63.8 517.863 82.7 517.863 104.3C517.863 126.05 528.213 144.95 552.813 144.95ZM605.314 50.75H624.364L652.114 100.55H652.414L680.314 50.75H699.364L661.264 115.4V158H643.414V115.4L605.314 50.75ZM742.465 158V65.9H708.115V50.75H794.515V65.9H760.315V158H742.465ZM809.697 50.75H827.547V95.15H878.247V50.75H896.097V158H878.247V110.45H827.547V158H809.697V50.75ZM966.766 160.25C934.366 160.25 914.116 136.55 914.116 104.3C914.116 72.05 934.366 48.5 966.766 48.5C999.016 48.5 1019.42 72.05 1019.42 104.3C1019.42 136.55 999.016 160.25 966.766 160.25ZM966.766 144.95C991.366 144.95 1001.57 126.05 1001.57 104.3C1001.57 82.7 991.366 63.8 966.766 63.8C942.166 63.8 931.816 82.7 931.816 104.3C931.816 126.05 942.166 144.95 966.766 144.95ZM1077.25 94.1C1100.2 99.95 1117.6 104.9 1117.6 128.9C1117.6 146 1104.7 160.25 1077.7 160.25C1051.45 160.25 1031.5 146.6 1030.45 122.3H1048.3C1049.2 135.95 1058.5 144.95 1077.7 144.95C1093.6 144.95 1099.75 137.9 1099.75 129.65C1099.75 116.9 1090.6 114.5 1069.45 109.25C1052.65 105.05 1034.5 98.6 1034.5 78.2C1034.5 59.15 1049.2 48.5 1072.6 48.5C1096.15 48.5 1113.25 60.8 1114.75 82.85H1096.9C1095.25 70.4 1087.45 63.8 1072.6 63.8C1059.85 63.8 1052.2 68.6 1052.2 76.55C1052.2 88.25 1062.25 90.35 1077.25 94.1Z" fill="#D8E2F8"/>
<path d="M403.9 50.75V49.75H402.502L402.954 51.073L403.9 50.75ZM422.8 50.75L423.755 50.4529L423.536 49.75H422.8V50.75ZM450.1 138.5L449.145 138.797L449.364 139.5H450.1V138.5ZM450.25 138.5V139.5H450.986L451.205 138.797L450.25 138.5ZM477.55 50.75V49.75H476.814L476.595 50.4529L477.55 50.75ZM496.45 50.75L497.396 51.073L497.848 49.75H496.45V50.75ZM459.85 158V159H460.565L460.796 158.323L459.85 158ZM440.5 158L439.554 158.323L439.785 159H440.5V158ZM403.9 50.75V51.75H422.8V50.75V49.75H403.9V50.75ZM422.8 50.75L421.845 51.0471L449.145 138.797L450.1 138.5L451.055 138.203L423.755 50.4529L422.8 50.75ZM450.1 138.5V139.5H450.25V138.5V137.5H450.1V138.5ZM450.25 138.5L451.205 138.797L478.505 51.0471L477.55 50.75L476.595 50.4529L449.295 138.203L450.25 138.5ZM477.55 50.75V51.75H496.45V50.75V49.75H477.55V50.75ZM496.45 50.75L495.504 50.427L458.904 157.677L459.85 158L460.796 158.323L497.396 51.073L496.45 50.75ZM459.85 158V157H440.5V158V159H459.85V158ZM440.5 158L441.446 157.677L404.846 50.427L403.9 50.75L402.954 51.073L439.554 158.323L440.5 158ZM552.812 160.25V159.25C536.87 159.25 523.984 153.427 515.075 143.694C506.158 133.951 501.162 120.218 501.162 104.3H500.162H499.162C499.162 120.632 504.292 134.874 513.6 145.044C522.916 155.223 536.355 161.25 552.812 161.25V160.25ZM500.162 104.3H501.162C501.162 88.3826 506.158 74.6876 515.074 64.9828C523.981 55.2872 536.868 49.5 552.812 49.5V48.5V47.5C536.357 47.5 522.919 53.4878 513.601 63.6297C504.292 73.7624 499.162 87.9674 499.162 104.3H500.162ZM552.812 48.5V49.5C568.681 49.5 581.568 55.2865 590.496 64.9835C599.431 74.6893 604.463 88.3845 604.463 104.3H605.463H606.463C606.463 87.9655 601.294 73.7607 591.967 63.6289C582.632 53.4885 569.194 47.5 552.812 47.5V48.5ZM605.463 104.3H604.463C604.463 120.216 599.431 133.949 590.494 143.693C581.566 153.427 568.678 159.25 552.812 159.25V160.25V161.25C569.197 161.25 582.634 155.223 591.968 145.045C601.294 134.876 606.463 120.634 606.463 104.3H605.463ZM552.812 144.95V145.95C565.402 145.95 574.407 141.096 580.235 133.384C586.033 125.712 588.613 115.312 588.613 104.3H587.613H586.613C586.613 115.038 584.092 124.963 578.64 132.178C573.218 139.354 564.823 143.95 552.812 143.95V144.95ZM587.613 104.3H588.613C588.613 93.3613 586.032 82.999 580.235 75.3461C574.407 67.6534 565.402 62.8 552.812 62.8V63.8V64.8C564.823 64.8 573.218 69.3966 578.64 76.5539C584.093 83.751 586.613 93.6387 586.613 104.3H587.613ZM552.812 63.8V62.8C540.224 62.8 531.183 67.6528 525.317 75.3436C519.482 82.9958 516.863 93.3584 516.863 104.3H517.863H518.863C518.863 93.6416 521.418 83.7542 526.908 76.5564C532.367 69.3972 540.801 64.8 552.812 64.8V63.8ZM517.863 104.3H516.863C516.863 115.315 519.481 125.715 525.317 133.387C531.182 141.097 540.223 145.95 552.812 145.95V144.95V143.95C540.802 143.95 532.368 139.353 526.908 132.176C521.419 124.96 518.863 115.035 518.863 104.3H517.863ZM605.314 50.75V49.75H603.564L604.452 51.2577L605.314 50.75ZM624.364 50.75L625.237 50.2632L624.951 49.75H624.364V50.75ZM652.114 100.55L651.24 101.037L651.526 101.55H652.114V100.55ZM652.414 100.55V101.55H653L653.286 101.039L652.414 100.55ZM680.314 50.75V49.75H679.728L679.441 50.2612L680.314 50.75ZM699.364 50.75L700.225 51.2577L701.114 49.75H699.364V50.75ZM661.264 115.4L660.402 114.892L660.264 115.127V115.4H661.264ZM661.264 158V159H662.264V158H661.264ZM643.414 158H642.414V159H643.414V158ZM643.414 115.4H644.414V115.127L644.275 114.892L643.414 115.4ZM605.314 50.75V51.75H624.364V50.75V49.75H605.314V50.75ZM624.364 50.75L623.49 51.2368L651.24 101.037L652.114 100.55L652.987 100.063L625.237 50.2632L624.364 50.75ZM652.114 100.55V101.55H652.414V100.55V99.55H652.114V100.55ZM652.414 100.55L653.286 101.039L681.186 51.2388L680.314 50.75L679.441 50.2612L651.541 100.061L652.414 100.55ZM680.314 50.75V51.75H699.364V50.75V49.75H680.314V50.75ZM699.364 50.75L698.502 50.2423L660.402 114.892L661.264 115.4L662.125 115.908L700.225 51.2577L699.364 50.75ZM661.264 115.4H660.264V158H661.264H662.264V115.4H661.264ZM661.264 158V157H643.414V158V159H661.264V158ZM643.414 158H644.414V115.4H643.414H642.414V158H643.414ZM643.414 115.4L644.275 114.892L606.175 50.2423L605.314 50.75L604.452 51.2577L642.552 115.908L643.414 115.4ZM742.465 158H741.465V159H742.465V158ZM742.465 65.9H743.465V64.9H742.465V65.9ZM708.115 65.9H707.115V66.9H708.115V65.9ZM708.115 50.75V49.75H707.115V50.75H708.115ZM794.515 50.75H795.515V49.75H794.515V50.75ZM794.515 65.9V66.9H795.515V65.9H794.515ZM760.315 65.9V64.9H759.315V65.9H760.315ZM760.315 158V159H761.315V158H760.315ZM742.465 158H743.465V65.9H742.465H741.465V158H742.465ZM742.465 65.9V64.9H708.115V65.9V66.9H742.465V65.9ZM708.115 65.9H709.115V50.75H708.115H707.115V65.9H708.115ZM708.115 50.75V51.75H794.515V50.75V49.75H708.115V50.75ZM794.515 50.75H793.515V65.9H794.515H795.515V50.75H794.515ZM794.515 65.9V64.9H760.315V65.9V66.9H794.515V65.9ZM760.315 65.9H759.315V158H760.315H761.315V65.9H760.315ZM760.315 158V157H742.465V158V159H760.315V158ZM809.697 50.75V49.75H808.697V50.75H809.697ZM827.547 50.75H828.547V49.75H827.547V50.75ZM827.547 95.15H826.547V96.15H827.547V95.15ZM878.247 95.15V96.15H879.247V95.15H878.247ZM878.247 50.75V49.75H877.247V50.75H878.247ZM896.097 50.75H897.097V49.75H896.097V50.75ZM896.097 158V159H897.097V158H896.097ZM878.247 158H877.247V159H878.247V158ZM878.247 110.45H879.247V109.45H878.247V110.45ZM827.547 110.45V109.45H826.547V110.45H827.547ZM827.547 158V159H828.547V158H827.547ZM809.697 158H808.697V159H809.697V158ZM809.697 50.75V51.75H827.547V50.75V49.75H809.697V50.75ZM827.547 50.75H826.547V95.15H827.547H828.547V50.75H827.547ZM827.547 95.15V96.15H878.247V95.15V94.15H827.547V95.15ZM878.247 95.15H879.247V50.75H878.247H877.247V95.15H878.247ZM878.247 50.75V51.75H896.097V50.75V49.75H878.247V50.75ZM896.097 50.75H895.097V158H896.097H897.097V50.75H896.097ZM896.097 158V157H878.247V158V159H896.097V158ZM878.247 158H879.247V110.45H878.247H877.247V158H878.247ZM878.247 110.45V109.45H827.547V110.45V111.45H878.247V110.45ZM827.547 110.45H826.547V158H827.547H828.547V110.45H827.547ZM827.547 158V157H809.697V158V159H827.547V158ZM809.697 158H810.697V50.75H809.697H808.697V158H809.697ZM966.766 160.25V159.25C950.824 159.25 937.937 153.427 929.028 143.694C920.111 133.951 915.116 120.218 915.116 104.3H914.116H913.116C913.116 120.632 918.245 134.874 927.553 145.044C936.87 155.223 950.308 161.25 966.766 161.25V160.25ZM914.116 104.3H915.116C915.116 88.3826 920.111 74.6876 929.027 64.9828C937.935 55.2872 950.822 49.5 966.766 49.5V48.5V47.5C950.31 47.5 936.872 53.4878 927.554 63.6297C918.245 73.7624 913.116 87.9674 913.116 104.3H914.116ZM966.766 48.5V49.5C982.634 49.5 995.522 55.2865 1004.45 64.9835C1013.38 74.6893 1018.42 88.3845 1018.42 104.3H1019.42H1020.42C1020.42 87.9655 1015.25 73.7607 1005.92 63.6289C996.585 53.4885 983.148 47.5 966.766 47.5V48.5ZM1019.42 104.3H1018.42C1018.42 120.216 1013.38 133.949 1004.45 143.693C995.519 153.427 982.632 159.25 966.766 159.25V160.25V161.25C983.15 161.25 996.587 155.223 1005.92 145.045C1015.25 134.876 1020.42 120.634 1020.42 104.3H1019.42ZM966.766 144.95V145.95C979.355 145.95 988.361 141.096 994.188 133.384C999.986 125.712 1002.57 115.312 1002.57 104.3H1001.57H1000.57C1000.57 115.038 998.045 124.963 992.593 132.178C987.171 139.354 978.776 143.95 966.766 143.95V144.95ZM1001.57 104.3H1002.57C1002.57 93.3613 999.985 82.999 994.188 75.3461C988.36 67.6534 979.355 62.8 966.766 62.8V63.8V64.8C978.776 64.8 987.171 69.3966 992.594 76.5539C998.046 83.751 1000.57 93.6387 1000.57 104.3H1001.57ZM966.766 63.8V62.8C954.177 62.8 945.136 67.6528 939.27 75.3436C933.435 82.9958 930.816 93.3584 930.816 104.3H931.816H932.816C932.816 93.6416 935.372 83.7542 940.861 76.5564C946.321 69.3972 954.755 64.8 966.766 64.8V63.8ZM931.816 104.3H930.816C930.816 115.315 933.434 125.715 939.27 133.387C945.135 141.097 954.177 145.95 966.766 145.95V144.95V143.95C954.755 143.95 946.321 139.353 940.862 132.176C935.372 124.96 932.816 115.035 932.816 104.3H931.816ZM1077.25 94.1L1077.49 93.131L1077.49 93.1299L1077.25 94.1ZM1030.45 122.3V121.3H1029.4L1029.45 122.343L1030.45 122.3ZM1048.3 122.3L1049.29 122.234L1049.23 121.3H1048.3V122.3ZM1069.45 109.25L1069.2 110.22L1069.2 110.221L1069.45 109.25ZM1114.75 82.85V83.85H1115.82L1115.74 82.7821L1114.75 82.85ZM1096.9 82.85L1095.9 82.9814L1096.02 83.85H1096.9V82.85ZM1077.25 94.1L1077 95.069C1088.52 98.0059 1098.42 100.67 1105.46 105.517C1108.95 107.923 1111.72 110.854 1113.63 114.612C1115.53 118.374 1116.6 123.022 1116.6 128.9H1117.6H1118.6C1118.6 122.778 1117.49 117.807 1115.41 113.708C1113.33 109.606 1110.32 106.433 1106.59 103.87C1099.2 98.7803 1088.92 96.0441 1077.49 93.131L1077.25 94.1ZM1117.6 128.9H1116.6C1116.6 137.186 1113.48 144.738 1107.12 150.231C1100.75 155.733 1091.03 159.25 1077.7 159.25V160.25V161.25C1091.37 161.25 1101.6 157.642 1108.42 151.744C1115.26 145.837 1118.6 137.714 1118.6 128.9H1117.6ZM1077.7 160.25V159.25C1064.73 159.25 1053.41 155.879 1045.23 149.594C1037.07 143.327 1031.96 134.115 1031.44 122.257L1030.45 122.3L1029.45 122.343C1029.98 134.785 1035.37 144.548 1044.01 151.181C1052.63 157.796 1064.41 161.25 1077.7 161.25V160.25ZM1030.45 122.3V123.3H1048.3V122.3V121.3H1030.45V122.3ZM1048.3 122.3L1047.3 122.366C1047.76 129.412 1050.41 135.354 1055.5 139.518C1060.57 143.666 1067.95 145.95 1077.7 145.95V144.95V143.95C1068.24 143.95 1061.37 141.734 1056.77 137.97C1052.18 134.221 1049.73 128.838 1049.29 122.234L1048.3 122.3ZM1077.7 144.95V145.95C1085.78 145.95 1091.54 144.16 1095.3 141.177C1099.1 138.172 1100.75 134.042 1100.75 129.65H1099.75H1098.75C1098.75 133.507 1097.32 137.028 1094.06 139.61C1090.78 142.215 1085.51 143.95 1077.7 143.95V144.95ZM1099.75 129.65H1100.75C1100.75 126.343 1100.15 123.62 1098.86 121.329C1097.56 119.036 1095.6 117.261 1093.03 115.772C1087.94 112.834 1080.2 110.889 1069.69 108.279L1069.45 109.25L1069.2 110.221C1079.84 112.861 1087.25 114.741 1092.03 117.503C1094.38 118.864 1096.04 120.408 1097.11 122.314C1098.2 124.224 1098.75 126.582 1098.75 129.65H1099.75ZM1069.45 109.25L1069.69 108.28C1061.29 106.181 1052.72 103.553 1046.25 98.9832C1039.84 94.4575 1035.5 88.0333 1035.5 78.2H1034.5H1033.5C1033.5 88.7667 1038.23 95.7675 1045.09 100.617C1051.9 105.422 1060.8 108.119 1069.2 110.22L1069.45 109.25ZM1034.5 78.2H1035.5C1035.5 68.9619 1039.04 61.8408 1045.38 57.0008C1051.75 52.1338 1061.03 49.5 1072.6 49.5V48.5V47.5C1060.76 47.5 1050.99 50.1912 1044.16 55.4117C1037.3 60.6592 1033.5 68.3881 1033.5 78.2H1034.5ZM1072.6 48.5V49.5C1084.2 49.5 1094.13 52.5317 1101.32 58.1919C1108.49 63.8377 1113.02 72.1574 1113.75 82.9179L1114.75 82.85L1115.74 82.7821C1114.98 71.4926 1110.2 62.6373 1102.56 56.6206C1094.93 50.6183 1084.54 47.5 1072.6 47.5V48.5ZM1114.75 82.85V81.85H1096.9V82.85V83.85H1114.75V82.85ZM1096.9 82.85L1097.89 82.7186C1097.04 76.3086 1094.58 71.2821 1090.32 67.875C1086.07 64.4798 1080.16 62.8 1072.6 62.8V63.8V64.8C1079.88 64.8 1085.3 66.4202 1089.07 69.4375C1092.83 72.4429 1095.1 76.9414 1095.9 82.9814L1096.9 82.85ZM1072.6 63.8V62.8C1066.12 62.8 1060.81 64.0164 1057.08 66.346C1053.32 68.7035 1051.2 72.196 1051.2 76.55H1052.2H1053.2C1053.2 72.954 1054.9 70.0715 1058.14 68.0415C1061.43 65.9836 1066.32 64.8 1072.6 64.8V63.8ZM1052.2 76.55H1051.2C1051.2 79.6235 1051.86 82.1392 1053.15 84.2271C1054.44 86.3105 1056.31 87.8931 1058.61 89.1788C1063.14 91.7172 1069.57 93.2122 1077 95.0701L1077.25 94.1L1077.49 93.1299C1069.92 91.2378 1063.82 89.8078 1059.58 87.4337C1057.49 86.2631 1055.91 84.8926 1054.85 83.1745C1053.79 81.4608 1053.2 79.3265 1053.2 76.55H1052.2Z" fill="#D8E2F8" mask="url(#path-1-outside-1_135_8)"/>
<path d="M39.9999 151.5C47.4999 151.5 54.1667 118.833 56 102H18C24.5 128 32.4336 151.5 39.9999 151.5Z" fill="#E5EAF5"/>
<path d="M46.0549 176.68C11.6181 178.767 -0.945318 128.68 0.0549106 101.68H18.0549C22.3882 119.347 33.0552 154.78 41.0552 151.18C49.0552 147.58 52.5552 116.18 55.0552 101.68H87.5552C88.5552 125.514 79.0552 174.68 46.0549 176.68Z" fill="#C8D3EC"/>
<path d="M108.555 145.18C95.5552 147.68 88.5552 118.68 87.5552 103.18H121.555C117.555 112.18 116.114 143.727 108.555 145.18Z" fill="#CBD1DE"/>
<path d="M216.055 58.1803C229.893 55.7387 235.889 85.6803 237.055 100.18H203.055C207.555 88.1805 207.555 59.6802 216.055 58.1803Z" fill="#DAE1F1"/>
<path d="M252.555 153.18C241.555 152.18 237.055 117.347 237.055 101.68H270.055C268.055 109.68 264.019 154.222 252.555 153.18Z" fill="#E9EFFD"/>
<path d="M72.5552 50.1802C83.3552 50.1802 87.5552 84.6802 87.5552 101.68H55.0552C56.0552 100.68 59.0552 50.1802 72.5552 50.1802Z" fill="#DAE1F1"/>
<path d="M7.05518 75.1799C2.25518 74.7799 0.388509 92.6799 0.0551758 101.68H18.0552C16.3885 93.0133 11.8552 75.5799 7.05518 75.1799Z" fill="#DAE1F1"/>
<path d="M203.055 202.18C229.455 192.98 235.555 130.18 237.055 100.18H203.055C202.055 108.347 195.555 123.68 183.055 126.18C169.667 128.858 163.555 111.014 162.555 102.68C159.555 151.18 171.555 213.157 203.055 202.18Z" fill="#C8D3EC"/>
<path d="M280.055 27.1802C245.996 27.18 237.222 76.0135 237.055 101.68H325.055C325.055 94.1804 322.055 27.1804 280.055 27.1802Z" fill="#D8E2F8"/>
<path d="M318.055 128.18C324.78 125.735 325.055 109.18 325.055 101.68H307.055C308.055 102.68 312.555 130.18 318.055 128.18Z" fill="#E9EFFD"/>
<path d="M126.055 0.180269C98.4552 3.78027 86.8933 74.1802 87.5552 103.18H162.555L162.554 103.115C162.053 76.5482 160.527 -4.31606 126.055 0.180269Z" fill="#D8E2F8"/>
<path d="M143.055 76.1802C131.855 76.1802 124.055 94.5135 121.555 103.18H162.555C162.555 99.6802 157.055 76.1802 143.055 76.1802Z" fill="#C2CBDF"/>
<path d="M285.055 51.6803C277.455 51.2803 271.889 84.847 270.055 101.68H306.555C298.555 71.6803 294.555 52.1803 285.055 51.6803Z" fill="#C2CBDF"/>
<path d="M181 126.5C168.2 126.9 163.333 111.333 162.5 103.5H202.5C200.833 111 193.8 126.1 181 126.5Z" fill="#E5EAF5"/>
</svg>
