<?xml version="1.0" encoding="UTF-8"?>
<svg id="Layer_1" data-name="Layer 1" xmlns="http://www.w3.org/2000/svg" viewBox="0 0 1920 404.27">
  <defs>
    <style>
      .cls-1 {
        stroke-width: 0px;
      }
    </style>
  </defs>
  <path class="cls-1" d="M725.72,202.06c-7.18-3.48-15.5-5.23-24.98-5.23h-48.08v134.64h17.98v-50.18h30.1c9.48,0,17.81-1.78,24.98-5.33s12.76-8.54,16.72-14.95c3.98-6.41,5.96-13.8,5.96-22.16s-1.99-15.71-5.96-22.06c-3.97-6.34-9.55-11.25-16.72-14.74ZM722.17,259.03c-5.23,4.95-12.09,7.42-20.6,7.42h-30.94v-54.77h27.81c9.48,0,17.1,2.54,22.89,7.63,5.78,5.09,8.68,11.81,8.68,20.18s-2.62,14.6-7.84,19.55Z"/>
  <polygon class="cls-1" points="789.79 196.83 771.82 196.83 771.82 331.47 858.58 331.47 858.58 316.21 789.79 316.21 789.79 196.83"/>
  <path class="cls-1" d="M926.32,196.83l-53.1,134.64h18.19l14.84-38.88h58.12l14.84,38.88h19.03l-53.11-134.64h-18.82ZM911.9,278.16l23.41-61.25,23.41,61.25h-46.83Z"/>
  <polygon class="cls-1" points="992.82 212.09 1036.93 212.09 1036.93 331.47 1054.91 331.47 1054.91 212.09 1099.02 212.09 1099.02 196.83 992.82 196.83 992.82 212.09"/>
  <polygon class="cls-1" points="1121.31 331.47 1139.29 331.47 1139.29 271.88 1196.16 271.88 1196.16 256.83 1139.29 256.83 1139.29 211.88 1209.12 211.88 1209.12 196.83 1121.31 196.83 1121.31 331.47"/>
  <path class="cls-1" d="M1323.37,202.68c-9.96-5.85-21.5-8.78-34.6-8.78s-24.64,2.93-34.6,8.78c-9.96,5.86-17.7,14.08-23.2,24.67-5.51,10.59-8.26,22.86-8.26,36.79s2.75,26.21,8.26,36.8,13.24,18.82,23.2,24.67,21.5,8.78,34.6,8.78,24.64-2.93,34.6-8.78c9.96-5.85,17.7-14.08,23.21-24.67,5.51-10.59,8.26-22.86,8.26-36.8s-2.75-26.2-8.26-36.79c-5.51-10.59-13.24-18.82-23.21-24.67ZM1330.59,293.31c-3.9,8.01-9.44,14.25-16.62,18.71s-15.51,6.69-24.98,6.69-17.63-2.33-24.88-7.01c-7.25-4.67-12.89-11.25-16.93-19.75-4.05-8.5-6.07-18.33-6.07-29.48,0-10.31,1.95-19.47,5.85-27.49,3.9-8.01,9.44-14.25,16.62-18.71,7.18-4.46,15.5-6.69,24.98-6.69s17.63,2.34,24.88,7c7.24,4.67,12.88,11.26,16.93,19.76,4.04,8.5,6.07,18.33,6.07,29.48,0,10.32-1.96,19.48-5.85,27.49Z"/>
  <path class="cls-1" d="M1478.66,317.04c-4.46,0-8.86-2.51-13.17-7.53l-27.39-31.78c10.46-2.23,18.71-6.86,24.78-13.9,6.06-7.04,9.1-15.58,9.1-25.61,0-8.22-1.99-15.47-5.96-21.74-3.97-6.27-9.51-11.12-16.62-14.53-7.11-3.41-15.34-5.12-24.68-5.12h-46.41v134.64h17.98v-51.43h20.7l35.75,41.19c3.34,3.9,7.03,6.76,11.08,8.57,4.04,1.81,8.71,2.72,14.01,2.72,2.09,0,4.39-.21,6.9-.63l-.84-15.05c-1.11.14-2.86.21-5.22.21ZM1396.29,265.4v-53.73h26.14c9.33,0,16.86,2.51,22.58,7.53,5.71,5.02,8.57,11.64,8.57,19.86s-2.59,14.32-7.74,19.13c-5.16,4.81-11.92,7.21-20.28,7.21h-29.27Z"/>
  <polygon class="cls-1" points="1575.04 288.61 1529.25 196.83 1505 196.83 1505 331.47 1522.14 331.47 1522.14 219.2 1566.46 307.85 1582.77 307.85 1627.09 219.2 1627.09 331.47 1645.07 331.47 1645.07 196.83 1620.82 196.83 1575.04 288.61"/>
  <polygon class="cls-1" points="796.79 139.31 796.79 4.99 775.31 4.99 724.72 84.66 674.12 4.99 652.65 4.99 652.65 139.31 682.13 139.31 682.13 67.85 716.67 119.65 732.77 119.65 767.31 67.85 767.31 139.31 796.79 139.31"/>
  <rect class="cls-1" x="1520.8" y="4.99" width="32.76" height="134.32"/>
  <polygon class="cls-1" points="1429.07 4.99 1399.59 4.99 1399.59 139.31 1497.87 139.31 1497.87 113.1 1429.07 113.1 1429.07 4.99"/>
  <rect class="cls-1" x="1733.74" y="4.99" width="32.76" height="134.32"/>
  <polygon class="cls-1" points="1674.78 86.96 1606.64 4.99 1583.05 4.99 1583.05 139.31 1612.53 139.31 1612.53 57.34 1680.66 139.31 1704.26 139.31 1704.26 4.99 1674.78 4.99 1674.78 86.96"/>
  <path class="cls-1" d="M851.16,113.1h60.28l11.14,26.21h30.67L891.93,4.99h-20.86l-61.32,134.32h30.26l11.14-26.21ZM881.3,49.38l18.7,44.06h-37.41l18.71-44.06Z"/>
  <path class="cls-1" d="M1892.57,95.1c-6.44,13.51-19.53,21.41-35.54,21.41-23.69,0-38.86-17.05-38.86-43.23s15.17-43.23,38.45-43.23c16.42,0,29.51,8.31,35.12,22.24l27.44-10.81c-9.98-23.9-33.67-38.03-62.56-38.03-40.95,0-69.83,28.89-69.83,69.83s29.09,69.83,70.24,69.83c28.89,0,52.59-13.72,62.97-37.21l-27.43-10.8Z"/>
  <polygon class="cls-1" points="980.25 139.31 1013.01 139.31 1013.01 91.55 1067.17 4.99 1031.58 4.99 996.85 63.59 962.13 4.99 926.09 4.99 980.25 91.55 980.25 139.31"/>
  <path class="cls-1" d="M1131.22,143.11c40.94,0,69.83-28.89,69.83-69.83s-28.89-69.83-69.83-69.83-69.83,28.89-69.83,69.83,28.89,69.83,69.83,69.83ZM1131.22,30.04c23.28,0,38.45,17.05,38.45,43.23s-15.17,43.23-38.45,43.23-38.45-17.05-38.45-43.23,15.17-43.23,38.45-43.23Z"/>
  <path class="cls-1" d="M1317.37,116.51c-23.7,0-38.87-17.05-38.87-43.23s15.17-43.23,38.45-43.23c16.42,0,29.51,8.31,35.13,22.24l27.43-10.81c-9.98-23.9-33.66-38.03-62.56-38.03-40.94,0-69.83,28.89-69.83,69.83s29.1,69.83,70.25,69.83c28.89,0,52.58-13.72,62.97-37.21l-27.44-10.8c-6.44,13.51-19.53,21.41-35.54,21.41Z"/>
  <path class="cls-1" d="M306.46,84.78h-76.8V0H0v126.85C0,204.66,37.64,254.65,114.83,279c9.73-3.07,18.83-6.56,27.31-10.45.21,1.61.33,2.53.33,2.53,11.39,66.43,52.83,110.41,125.59,133.18,72.76-22.77,114.2-66.75,125.58-133.18,0,0,.13-.92.34-2.53,8.47,3.89,17.57,7.37,27.3,10.45,77.19-24.36,114.83-74.34,114.83-152.15V0h-229.65v84.78ZM139.31,84.78v146.14c0,2.99.1,6.13.25,9.27-7.5,4.15-15.71,8.01-24.73,11.6-62.63-24.99-87.62-62-87.62-130.01V37.96c0-8.23,5.05-13.28,13.28-13.28h148.68c8.22,0,13.28,5.06,13.28,13.28v46.82h-63.14ZM166.51,122.74c0-8.23,5.07-13.28,13.28-13.28h22.65v12.34c0,44.68-10.79,75.97-35.94,99.28v-98.33ZM367.7,257.82c-7.27,59.14-37.64,94.58-99.64,119.25-62-24.67-92.37-60.11-99.65-119.25,0,0-.18-1.32-.44-3.7,41.36-28,61.69-70.11,61.69-127.26v-17.4h76.8v17.4c0,57.15,20.34,99.27,61.69,127.26-.25,2.38-.44,3.7-.44,3.7ZM333.67,37.96c0-8.23,5.06-13.28,13.28-13.28h148.68c8.23,0,13.28,5.06,13.28,13.28v83.82c0,68.01-24.99,105.02-87.63,130.01-9.01-3.6-17.22-7.45-24.72-11.6.16-3.14.24-6.28.24-9.27V84.78h-63.14v-46.82ZM333.67,109.45h22.65c8.23,0,13.29,5.06,13.29,13.28v98.33c-25.16-23.3-35.94-54.6-35.94-99.28v-12.34Z"/>
</svg>